# xmcd CD database file
#
# Track frame offsets:
#	150
#	29492
#	55372
#
# Disc length: 1120 seconds
#
# Revision: 3
# Processed by: cddbd v1.5.2PL0 Copyright (c) Steve Scherf et al.
# Submitted via: CDex 1.70beta2
#
DISCID=23045e03
DTITLE=Aly-Us - Follow Me
DYEAR=1992
DGENRE=House
TTITLE0=Follow Me (Club mix)
TTITLE1=Follow Me (Dub mix)
TTITLE2=Follow Me (Instrumental Mix)
EXTD=YEAR: 1992
EXTT0=
EXTT1=
EXTT2=
PLAYORDER=
